{
  "accessors": [
    {
      "bufferView": 2,
      "componentType": 5126,
      "count": 2111,
      "max": [
        61.458045959472656,
        -2.285308837890625,
        205.61604309082031
      ],
      "min": [
        -61.301937103271484,
        -112.21787261962891,
        0
      ],
      "type": "VEC3"
    },
    {
      "bufferView": 2,
      "byteOffset": 25332,
      "componentType": 5126,
      "count": 2111,
      "max": [
        1,
        0.99980747699737549,
        1
      ],
      "min": [
        -1,
        -0.99997061491012573,
        -1
      ],
      "type": "VEC3"
    },
    {
      "bufferView": 3,
      "componentType": 5126,
      "count": 2111,
      "max": [
        1,
        1,
        0.99987506866455078,
        1
      ],
      "min": [
        -1,
        -1,
        -1,
        1
      ],
      "type": "VEC4"
    },
    {
      "bufferView": 1,
      "componentType": 5126,
      "count": 2111,
      "max": [
        0.99900001287460327,
        0.99437206983566284
      ],
      "min": [
        0.0010000000474974513,
        0.0010000000474974513
      ],
      "type": "VEC2"
    },
    {
      "bufferView": 0,
      "componentType": 5125,
      "count": 5754,
      "max": [
        2110
      ],
      "min": [
        0
      ],
      "type": "SCALAR"
    },
    {
      "bufferView": 2,
      "byteOffset": 50664,
      "componentType": 5126,
      "count": 208,
      "max": [
        22.950056076049805,
        17.702154159545898,
        11.757296562194824
      ],
      "min": [
        -22.753252029418945,
        -17.264583587646484,
        1.1595543622970581
      ],
      "type": "VEC3"
    },
    {
      "bufferView": 2,
      "byteOffset": 53160,
      "componentType": 5126,
      "count": 208,
      "max": [
        0.88833099603652954,
        1,
        0.99999696016311646
      ],
      "min": [
        -0.88638865947723389,
        -1,
        -0.99999856948852539
      ],
      "type": "VEC3"
    },
    {
      "bufferView": 3,
      "byteOffset": 33776,
      "componentType": 5126,
      "count": 208,
      "max": [
        0.74557840824127197,
        0.99999701976776123,
        1,
        1
      ],
      "min": [
        -0.99999850988388062,
        -1,
        -0.44754487276077271,
        1
      ],
      "type": "VEC4"
    },
    {
      "bufferView": 1,
      "byteOffset": 16888,
      "componentType": 5126,
      "count": 208,
      "max": [
        0.99316489696502686,
        0.99900001287460327
      ],
      "min": [
        0.0010000000474974513,
        0.0010000000474974513
      ],
      "type": "VEC2"
    },
    {
      "bufferView": 0,
      "byteOffset": 23016,
      "componentType": 5125,
      "count": 540,
      "max": [
        207
      ],
      "min": [
        0
      ],
      "type": "SCALAR"
    },
    {
      "bufferView": 2,
      "byteOffset": 55656,
      "componentType": 5126,
      "count": 332,
      "max": [
        28.041877746582031,
        2.4646637439727783,
        1.6172516345977783
      ],
      "min": [
        -29.256599426269531,
        -102.12540435791016,
        -54.806289672851562
      ],
      "type": "VEC3"
    },
    {
      "bufferView": 2,
      "byteOffset": 59640,
      "componentType": 5126,
      "count": 332,
      "max": [
        1,
        1,
        1
      ],
      "min": [
        -1,
        -1,
        -1
      ],
      "type": "VEC3"
    },
    {
      "bufferView": 3,
      "byteOffset": 37104,
      "componentType": 5126,
      "count": 332,
      "max": [
        0.99999827146530151,
        1,
        0.99726283550262451,
        1
      ],
      "min": [
        -0.99999827146530151,
        -1,
        -0.99961268901824951,
        1
      ],
      "type": "VEC4"
    },
    {
      "bufferView": 1,
      "byteOffset": 18552,
      "componentType": 5126,
      "count": 332,
      "max": [
        0.97848010063171387,
        0.99900001287460327
      ],
      "min": [
        0.0010000000474974513,
        0.0010000000474974513
      ],
      "type": "VEC2"
    },
    {
      "bufferView": 0,
      "byteOffset": 25176,
      "componentType": 5125,
      "count": 432,
      "max": [
        331
      ],
      "min": [
        0
      ],
      "type": "SCALAR"
    }
  ],
  "asset": {
    "extras": {
      "author": "Samuel Metters (https://sketchfab.com/samuelmetters)",
      "license": "CC-BY-4.0 (http://creativecommons.org/licenses/by/4.0/)",
      "source": "https://sketchfab.com/models/c307f05e5dcb4afbae2f59552ba79f55",
      "title": "Cartoon Rocket"
    },
    "generator": "Sketchfab-3.19.4",
    "version": "2.0"
  },
  "bufferViews": [
    {
      "buffer": 0,
      "byteLength": 26904,
      "byteOffset": 0,
      "name": "floatBufferViews",
      "target": 34963
    },
    {
      "buffer": 0,
      "byteLength": 21208,
      "byteOffset": 26904,
      "byteStride": 8,
      "name": "floatBufferViews",
      "target": 34962
    },
    {
      "buffer": 0,
      "byteLength": 63624,
      "byteOffset": 48112,
      "byteStride": 12,
      "name": "floatBufferViews",
      "target": 34962
    },
    {
      "buffer": 0,
      "byteLength": 42416,
      "byteOffset": 111736,
      "byteStride": 16,
      "name": "floatBufferViews",
      "target": 34962
    }
  ],
  "buffers": [
    {
      "byteLength": 154152,
      "uri": "scene.bin"
    }
  ],
  "images": [
    {
      "uri": "textures/Material_51_baseColor.png"
    },
    {
      "uri": "textures/Material_51_metallicRoughness.png"
    },
    {
      "uri": "textures/Material_47_metallicRoughness.png"
    },
    {
      "uri": "textures/Material_47_baseColor.png"
    },
    {
      "uri": "textures/Material_50_normal.png"
    },
    {
      "uri": "textures/Material_50_metallicRoughness.png"
    },
    {
      "uri": "textures/Material_50_baseColor.png"
    }
  ],
  "materials": [
    {
      "doubleSided": true,
      "emissiveFactor": [
        0,
        0,
        0
      ],
      "name": "Material_51",
      "pbrMetallicRoughness": {
        "baseColorFactor": [
          1,
          1,
          1,
          1
        ],
        "baseColorTexture": {
          "index": 0,
          "texCoord": 0
        },
        "metallicFactor": 1,
        "metallicRoughnessTexture": {
          "index": 1,
          "texCoord": 0
        },
        "roughnessFactor": 1
      }
    },
    {
      "doubleSided": true,
      "emissiveFactor": [
        0,
        0,
        0
      ],
      "name": "Material_50",
      "normalTexture": {
        "index": 4,
        "scale": 1,
        "texCoord": 0
      },
      "pbrMetallicRoughness": {
        "baseColorFactor": [
          1,
          1,
          1,
          1
        ],
        "baseColorTexture": {
          "index": 6,
          "texCoord": 0
        },
        "metallicFactor": 1,
        "metallicRoughnessTexture": {
          "index": 5,
          "texCoord": 0
        },
        "roughnessFactor": 1
      }
    },
    {
      "doubleSided": true,
      "emissiveFactor": [
        0,
        0,
        0
      ],
      "name": "Material_47",
      "pbrMetallicRoughness": {
        "baseColorFactor": [
          1,
          1,
          1,
          1
        ],
        "baseColorTexture": {
          "index": 3,
          "texCoord": 0
        },
        "metallicFactor": 1,
        "metallicRoughnessTexture": {
          "index": 2,
          "texCoord": 0
        },
        "roughnessFactor": 1
      }
    }
  ],
  "meshes": [
    {
      "name": "Cylinder002_Material #51_0",
      "primitives": [
        {
          "attributes": {
            "NORMAL": 1,
            "POSITION": 0,
            "TANGENT": 2,
            "TEXCOORD_0": 3
          },
          "indices": 4,
          "material": 0,
          "mode": 4
        }
      ]
    },
    {
      "name": "Cylinder004_Material #50_0",
      "primitives": [
        {
          "attributes": {
            "NORMAL": 6,
            "POSITION": 5,
            "TANGENT": 7,
            "TEXCOORD_0": 8
          },
          "indices": 9,
          "material": 1,
          "mode": 4
        }
      ]
    },
    {
      "name": "Sphere008_Material #47_0",
      "primitives": [
        {
          "attributes": {
            "NORMAL": 11,
            "POSITION": 10,
            "TANGENT": 12,
            "TEXCOORD_0": 13
          },
          "indices": 14,
          "material": 2,
          "mode": 4
        }
      ]
    }
  ],
  "nodes": [
    {
      "children": [
        1
      ],
      "name": "RootNode (gltf orientation matrix)",
      "rotation": [
        -0.70710678118654746,
        -0,
        -0,
        0.70710678118654757
      ]
    },
    {
      "children": [
        2
      ],
      "name": "RootNode (model correction matrix)"
    },
    {
      "children": [
        3
      ],
      "matrix": [
        1,
        0,
        0,
        0,
        0,
        0,
        1,
        0,
        0,
        -1,
        0,
        0,
        0,
        0,
        0,
        1
      ],
      "name": "caf6721449314eaa9995e07c7c5ca95f.fbx"
    },
    {
      "children": [
        4,
        6,
        8
      ],
      "name": "RootNode"
    },
    {
      "children": [
        5
      ],
      "matrix": [
        1,
        0,
        0,
        0,
        0,
        2.2204460492503131e-16,
        -1,
        0,
        0,
        1,
        2.2204460492503131e-16,
        0,
        -5.4955434799194336,
        -13.454635620117188,
        -63.090419769287109,
        1
      ],
      "name": "Cylinder002"
    },
    {
      "mesh": 0,
      "name": "Cylinder002_Material #51_0"
    },
    {
      "children": [
        7
      ],
      "matrix": [
        0.81173929599477546,
        -5.7209167934242437e-19,
        0.0087848386325584723,
        0,
        -0.00029264553717871315,
        0.99963404069164152,
        0.027041120760607319,
        0,
        -0.010817648098471624,
        -0.027042705866441911,
        0.99957556638865575,
        0,
        -5.6580572128295898,
        97.901435852050781,
        27.279544830322266,
        1
      ],
      "name": "Cylinder004"
    },
    {
      "mesh": 1,
      "name": "Cylinder004_Material #50_0"
    },
    {
      "children": [
        9
      ],
      "matrix": [
        0.94454176692567038,
        -0.0036605897459220608,
        -0.328370904033297,
        0,
        -0.0021336725812742341,
        0.99984835364254199,
        -0.017283435989819237,
        0,
        0.328384492789768,
        0.017025569251610532,
        0.94439105784771737,
        0,
        4.1008892059326172,
        120.05019378662109,
        33.484397888183594,
        1
      ],
      "name": "Sphere008"
    },
    {
      "mesh": 2,
      "name": "Sphere008_Material #47_0"
    }
  ],
  "samplers": [
    {
      "magFilter": 9729,
      "minFilter": 9987,
      "wrapS": 10497,
      "wrapT": 10497
    }
  ],
  "scene": 0,
  "scenes": [
    {
      "name": "OSG_Scene",
      "nodes": [
        0
      ]
    }
  ],
  "textures": [
    {
      "sampler": 0,
      "source": 0
    },
    {
      "sampler": 0,
      "source": 1
    },
    {
      "sampler": 0,
      "source": 2
    },
    {
      "sampler": 0,
      "source": 3
    },
    {
      "sampler": 0,
      "source": 4
    },
    {
      "sampler": 0,
      "source": 5
    },
    {
      "sampler": 0,
      "source": 6
    }
  ]
}

